# xmcd CD database file
#
# Track frame offsets:
#	150
#	21097
#	45557
#
# Disc length: 884 seconds
#
# Revision: 0
# Processed by: cddbd v1.5PL3 Copyright (c) Steve Scherf et al.
# Submitted via: CDex 1.40Release
#
DISCID=1a037203
DTITLE=ZNX(ジンスク) - サヨナラに接吻を
DYEAR=1994
DGENRE=Pop
TTITLE0=サヨナラに接吻を
TTITLE1=すれちがうよりはやく抱きしめて
TTITLE2=サヨナラに接吻を(original karaoke)
EXTD=YEAR: 1994 ID3G: 13
EXTT0=
EXTT1=
EXTT2=
PLAYORDER=
